<svg width="464" height="100" viewBox="0 0 464 100" fill="none" xmlns="http://www.w3.org/2000/svg">
<path d="M91.8266 22.1123H99.5476L117.91 44.5554L136.273 22.1123H143.994V79H135.552V36.4743L121.431 53.5966H114.43L100.268 36.4743V79H91.8266V22.1123ZM153.995 52.4364C153.995 49.6894 154.662 47.1957 155.995 44.9554C157.355 42.7151 159.169 40.9282 161.436 39.5947C163.703 38.2345 166.21 37.5544 168.957 37.5544H192.08V79H183.639V45.9956H168.957C167.17 45.9956 165.637 46.6356 164.356 47.9158C163.076 49.1693 162.436 50.7029 162.436 52.5164V63.958C162.436 65.7715 163.076 67.3318 164.356 68.6386C165.637 69.9188 167.17 70.5589 168.957 70.5589H178.838V79H168.957C166.21 79 163.703 78.3332 161.436 76.9997C159.169 75.6395 157.355 73.826 155.995 71.559C154.662 69.292 153.995 66.785 153.995 64.038V52.4364ZM201.681 49.156C201.681 47.0224 202.215 45.0754 203.282 43.3152C204.375 41.555 205.815 40.1548 207.602 39.1146C209.416 38.0745 211.416 37.5544 213.603 37.5544H222.844V45.9555H213.603C212.643 45.9555 211.816 46.2889 211.123 46.9557C210.456 47.5958 210.122 48.3825 210.122 49.316V79H201.681V49.156ZM230.485 22.1123H238.926V53.4366H241.767L256.769 37.5544H267.73L248.808 57.6371L269.41 79H257.609L241.007 61.8777H238.926V79H230.485V22.1123ZM273.851 46.1156C273.851 43.7419 274.718 41.7283 276.451 40.0748C278.185 38.3945 280.265 37.5544 282.692 37.5544H299.975C302.188 37.5544 304.189 38.1012 305.975 39.1946C307.789 40.2614 309.229 41.715 310.296 43.5552C311.389 45.3688 311.936 47.3824 311.936 49.596V50.7562C311.936 52.9432 311.389 54.9434 310.296 56.757C309.229 58.5439 307.789 59.9841 305.975 61.0776C304.189 62.1444 302.188 62.6778 299.975 62.6778H287.093V54.2767H300.055C301.015 54.2767 301.828 53.93 302.495 53.2365C303.188 52.5431 303.535 51.703 303.535 50.7162V49.596C303.535 48.5826 303.188 47.7291 302.495 47.0357C301.828 46.3423 301.015 45.9956 300.055 45.9956H282.292V67.2784C282.292 68.1852 282.599 68.9586 283.212 69.5987C283.826 70.2388 284.573 70.5589 285.453 70.5589H309.016V79H285.453C283.319 79 281.372 78.4799 279.612 77.4398C277.852 76.373 276.451 74.9595 275.411 73.1992C274.371 71.4123 273.851 69.452 273.851 67.3184V46.1156ZM319.137 37.5544H324.538V22.1123H332.979V37.5544H345.741V45.9956H332.979V67.2384C332.979 68.1452 333.326 68.932 334.019 69.5987C334.739 70.2388 335.593 70.5589 336.58 70.5589H345.741V79H336.46C334.273 79 332.272 78.4799 330.459 77.4398C328.672 76.373 327.232 74.9595 326.138 73.1992C325.071 71.4123 324.538 69.4387 324.538 67.2784V45.9956H319.137V37.5544ZM354.182 22.1123H392.267V30.5135H362.623V79H354.182V22.1123ZM367.424 45.1954H392.267V53.5966H367.424V45.1954ZM401.868 37.5544H410.309V63.918C410.309 65.7849 410.95 67.3718 412.23 68.6786C413.51 69.9855 415.043 70.6389 416.83 70.6389H431.512V37.5544H439.953V70.5989C439.953 72.9192 439.127 74.9061 437.473 76.5597C435.82 78.1866 433.806 79 431.432 79H416.83C414.083 79 411.576 78.3332 409.309 76.9997C407.042 75.6395 405.229 73.826 403.869 71.559C402.535 69.292 401.868 66.785 401.868 64.038V37.5544ZM449.555 22.1123H457.996V79H449.555V22.1123Z" fill="url(#paint0_linear_1_29)"/>
<path d="M9.48484 50.8413C8.54197 51.4078 7.76137 52.2081 7.21866 53.1649C6.67595 54.1216 6.38951 55.2023 6.3871 56.3023V66.6494C6.38951 67.7493 6.67595 68.83 7.21866 69.7867C7.76137 70.7435 8.54197 71.5438 9.48484 72.1103L19.0655 77.8587C20.0589 78.4555 21.1959 78.7708 22.3548 78.7708C23.5137 78.7708 24.6508 78.4555 25.6442 77.8587L38.3226 70.2581V52.6935L22.3548 43.1129L9.48484 50.8413Z" stroke="#12AE1C" stroke-width="6.3871" stroke-linecap="round" stroke-linejoin="round"/>
<path d="M22.3549 62.2742L7.21745 53.1726" stroke="#12AE1C" stroke-width="6.3871" stroke-linecap="round" stroke-linejoin="round"/>
<path d="M22.3548 62.2742L38.3226 52.6935" stroke="#12AE1C" stroke-width="6.3871" stroke-linecap="round" stroke-linejoin="round"/>
<path d="M22.3548 62.2742V78.7848" stroke="#12AE1C" stroke-width="6.3871" stroke-linecap="round" stroke-linejoin="round"/>
<path d="M38.3226 52.6935V70.2581L51.001 77.8587C51.9944 78.4555 53.1314 78.7708 54.2903 78.7708C55.4492 78.7708 56.5863 78.4555 57.5797 77.8587L67.1603 72.1103C68.1032 71.5438 68.8838 70.7435 69.4265 69.7867C69.9692 68.83 70.2557 67.7493 70.2581 66.6494V56.3023C70.2557 55.2023 69.9692 54.1216 69.4265 53.1649C68.8838 52.2081 68.1032 51.4078 67.1603 50.8413L54.2903 43.1129L38.3226 52.6935Z" stroke="#0C8414" stroke-width="6.3871" stroke-linecap="round" stroke-linejoin="round"/>
<path d="M54.2903 62.2742L38.3226 52.6935Z" fill="#A65454"/>
<path d="M54.2903 62.2742L38.3226 52.6935" stroke="#0C8414" stroke-width="6.3871" stroke-linecap="round" stroke-linejoin="round"/>
<path d="M54.2903 62.2742L69.4277 53.1726" stroke="#0C8414" stroke-width="6.3871" stroke-linecap="round" stroke-linejoin="round"/>
<path d="M54.2903 62.2742V78.7848" stroke="#0C8414" stroke-width="6.3871" stroke-linecap="round" stroke-linejoin="round"/>
<path d="M25.4526 23.6961C24.5097 24.2626 23.7291 25.063 23.1864 26.0197C22.6437 26.9765 22.3573 28.0571 22.3548 29.1571V43.1129L38.3226 52.6935L54.2903 43.1129V29.1571C54.2879 28.0571 54.0015 26.9765 53.4588 26.0197C52.9161 25.063 52.1355 24.2626 51.1926 23.6961L41.6119 17.9477C40.6185 17.3509 39.4815 17.0356 38.3226 17.0356C37.1637 17.0356 36.0266 17.3509 35.0332 17.9477L25.4526 23.6961Z" stroke="#36DB41" stroke-width="6.3871" stroke-linecap="round" stroke-linejoin="round"/>
<path d="M38.3226 35.129L23.1852 26.0274" stroke="#36DB41" stroke-width="6.3871" stroke-linecap="round" stroke-linejoin="round"/>
<path d="M38.3226 35.129L53.46 26.0274" stroke="#36DB41" stroke-width="6.3871" stroke-linecap="round" stroke-linejoin="round"/>
<path d="M38.3226 52.6935V35.129" stroke="#36DB41" stroke-width="6.3871" stroke-linecap="round" stroke-linejoin="round"/>
<defs>
<linearGradient id="paint0_linear_1_29" x1="86.2258" y1="50" x2="463.226" y2="50" gradientUnits="userSpaceOnUse">
<stop stop-color="#0B8213"/>
<stop offset="1" stop-color="#36DB41"/>
</linearGradient>
</defs>
</svg>
